<?xml version="1.0" encoding="UTF-8"?>
<svg width="114px" height="55px" viewBox="0 0 114 55" version="1.1" xmlns="http://www.w3.org/2000/svg" xmlns:xlink="http://www.w3.org/1999/xlink">
    <!-- Generator: Sketch 41.2 (35397) - http://www.bohemiancoding.com/sketch -->
    <title>logo</title>
    <desc>Created with Sketch.</desc>
    <defs></defs>
    <g id="Page-1" stroke="none" stroke-width="1" fill="none" fill-rule="evenodd">
        <g id="Main-page" transform="translate(-95.000000, -15.000000)" fill="#3C3C3C">
            <g id="navbar">
                <g id="logo" transform="translate(95.000000, 15.000000)">
                    <g id="design" transform="translate(0.000000, 30.454102)">
                        <path d="M6.60709737,0.598476125 C10.0138819,0.598476125 12.904487,1.63381457 15.2789127,3.8080253 C17.5501024,5.98223604 18.7889331,8.88118368 18.7889331,12.5048682 C18.7889331,16.1285528 17.7565742,18.9239666 15.5886204,20.7875758 C13.4206665,22.651185 10.7365332,23.5829896 7.32974864,23.5829896 C5.05855892,23.5829896 2.58089741,23.4794557 0.206471793,23.2723881 L0.206471793,0.909077659 C2.06471793,0.805543814 4.23267175,0.70200997 6.71033326,0.70200997 L6.60709737,0.598476125 Z M7.32974864,22.0299819 C10.2203537,22.0299819 12.5947794,21.2017112 14.4530255,19.6487035 C16.2080357,18.0956958 17.1371588,15.7144174 17.1371588,12.5048682 C17.1371588,9.29531906 16.1047998,6.81050679 14.1433178,4.84336375 C12.1818358,2.97975455 9.70417426,2.04794995 6.71033326,2.04794995 C4.64561534,2.04794995 2.99384099,2.04794995 1.85824613,2.15148379 L1.85824613,21.8229142 C3.20031279,22.0299819 5.05855892,22.0299819 7.32974864,22.0299819 Z" id="Combined-Shape"></path>
                        <polygon id="Path" points="25.6025023 23.1688542 25.6025023 0.805543814 36.0293278 0.805543814 36.0293278 2.15148379 27.1510407 2.15148379 27.1510407 10.3306575 35.1002048 10.3306575 35.1002048 11.6765975 27.1510407 11.6765975 27.1510407 21.7193804 36.3390355 21.7193804 36.3390355 23.1688542"></polygon>
                        <path d="M47.1788046,1.73734841 C45.9399739,1.73734841 44.9076149,2.04794995 44.1849636,2.66915301 C43.3590765,3.29035608 43.0493688,4.11862684 43.0493688,5.15396528 C43.0493688,6.39637141 43.5655483,7.5352437 44.5979072,8.4670483 C45.3205585,9.19178521 46.2496816,9.91652213 47.4885123,10.7447929 C48.6241072,11.5730636 49.4499944,12.0907329 49.8629379,12.5048682 C50.2758815,12.8154698 50.792061,13.333139 51.4114764,13.9543421 C52.5470712,15.0932143 53.0632507,16.3356205 53.0632507,17.8886281 C53.0632507,19.7522373 52.4438354,21.2017112 51.1017687,22.2370496 C49.8629379,23.1688542 48.0046918,23.6865234 45.7335021,23.6865234 C43.4623124,23.6865234 41.5008303,23.0653204 39.9522919,21.9264481 L40.7781791,20.6840419 C42.3267175,21.7193804 43.9784918,22.2370496 45.7335021,22.2370496 C47.4885123,22.2370496 48.830579,21.8229142 49.8629379,21.0981773 C50.792061,20.3734404 51.3082405,19.338102 51.3082405,17.992162 C51.3082405,16.8532897 50.792061,15.8179513 49.8629379,14.7826128 C49.1402867,14.0578759 48.2111636,13.333139 47.0755687,12.5048682 C45.9399739,11.6765975 45.1140867,11.1589283 44.5979072,10.7447929 C44.1849636,10.4341913 43.5655483,9.91652213 42.9461329,9.29531906 C41.810538,8.15644677 41.1911226,6.81050679 41.1911226,5.25749913 C41.1911226,3.70449146 41.7073021,2.46208533 42.842897,1.63381457 C43.9784918,0.805543814 45.4237944,0.287874592 47.3852764,0.287874592 C49.3467585,0.287874592 50.9985328,0.70200997 52.5470712,1.42674688 L51.9276559,2.66915301 C50.4823533,1.9444161 48.830579,1.63381457 46.9723328,1.63381457 L47.1788046,1.73734841 Z" id="Path"></path>
                        <polygon id="Path" points="59.3606404 23.1688542 59.3606404 0.805543814 60.9091789 0.805543814 60.9091789 23.1688542"></polygon>
                        <path d="M78.5625171,1.84088226 C75.9816197,1.84088226 73.9169018,2.77268686 72.1618916,4.7398299 C70.4068813,6.70697295 69.5809941,9.08825137 69.5809941,11.8836652 C69.5809941,14.679079 70.5101172,17.1638912 72.4715992,19.1310343 C74.4330813,21.0981773 76.704271,22.1335158 79.3884043,22.1335158 C82.0725376,22.1335158 84.1372555,21.8229142 85.5825581,21.2017112 L85.5825581,11.987199 L87.1310965,11.987199 L87.1310965,21.9264481 C85.3760863,23.0653204 82.7951889,23.5829896 79.4916402,23.5829896 C76.1880915,23.5829896 73.4007223,22.4441173 71.2327685,20.2699066 C68.9615788,17.992162 67.8259839,15.300282 67.8259839,11.987199 C67.8259839,8.77764984 68.8583429,5.98223604 70.9230608,3.8080253 C72.9877787,1.63381457 75.5686761,0.494942281 78.7689889,0.494942281 C81.3498863,0.494942281 83.9307837,0.909077659 86.4084453,1.73734841 L85.9955017,3.08328839 C83.6210761,2.35855148 81.1434145,1.9444161 78.5625171,1.9444161 L78.5625171,1.84088226 Z" id="Path"></path>
                        <path d="M94.667317,23.1688542 L94.667317,0.598476125 L95.3899682,0.598476125 L110.049466,17.4744928 C110.565645,18.0956958 111.081824,18.7168989 111.494768,19.2345681 C111.907712,19.8557712 112.217419,20.1663727 112.217419,20.1663727 C112.217419,19.6487035 112.114183,18.5098312 112.114183,16.9568235 L112.114183,0.70200997 L113.662722,0.70200997 L113.662722,23.2723881 L112.940071,23.2723881 L97.9708656,6.08576988 L96.1126195,3.8080253 C96.1126195,4.22216068 96.2158554,5.36103297 96.2158554,7.01757448 L96.2158554,23.1688542 L94.667317,23.1688542 Z" id="Path"></path>
                    </g>
                    <g id="maoli">
                        <polygon id="Path" points="99.3129323 24.9516565 99.3129323 2.58834611 100.861471 2.58834611 100.861471 24.9516565"></polygon>
                        <polygon id="Path" points="82.7951889 24.9516565 82.7951889 2.58834611 84.3437273 2.58834611 84.3437273 23.5021827 94.5640811 23.5021827 94.5640811 24.9516565 82.691953 24.9516565"></polygon>
                        <path d="M64.6256711,25.262258 C61.4253583,25.262258 58.741225,24.1233858 56.5732712,21.949175 C54.4053174,19.6714304 53.3729584,16.9795505 53.3729584,13.7700013 C53.3729584,10.5604521 54.4053174,7.76503833 56.5732712,5.5908276 C58.741225,3.31308302 61.4253583,2.27774458 64.6256711,2.27774458 C67.8259839,2.27774458 70.5101172,3.41661687 72.678071,5.5908276 C74.8460249,7.86857218 75.8783838,10.5604521 75.8783838,13.7700013 C75.8783838,16.9795505 74.8460249,19.7749643 72.678071,21.949175 C70.5101172,24.2269196 67.8259839,25.262258 64.6256711,25.262258 Z M64.6256711,3.62368456 C61.8383019,3.62368456 59.5671122,4.55548916 57.7088661,6.5226322 C55.8506199,8.48977524 54.9214969,10.8710537 54.9214969,13.7700013 C54.9214969,16.5654151 55.8506199,19.0502274 57.7088661,20.9138366 C59.5671122,22.8809796 61.8383019,23.8127842 64.6256711,23.8127842 C67.4130403,23.8127842 69.68423,22.8809796 71.5424762,20.9138366 C73.4007223,18.9466935 74.2266095,16.5654151 74.2266095,13.7700013 C74.2266095,10.9745875 73.2974864,8.48977524 71.5424762,6.5226322 C69.68423,4.55548916 67.4130403,3.62368456 64.6256711,3.62368456 Z" id="Combined-Shape"></path>
                        <path d="M35.3066766,17.1866182 L32.1063638,24.9516565 L30.4545894,24.9516565 L39.849056,2.38127842 L40.7781791,2.38127842 L50.1726456,24.9516565 L48.4176354,24.9516565 L45.2173226,17.1866182 L35.3066766,17.1866182 Z M40.2619996,4.96962453 C39.9522919,6.00496298 39.6425842,6.83323373 39.3328765,7.55797064 L35.9260919,15.8406782 L44.7011431,15.8406782 L41.2943585,7.55797064 C40.7781791,6.31556451 40.4684714,5.38375991 40.2619996,4.96962453 Z" id="Combined-Shape"></path>
                        <path d="M13.936846,23.7092504 L13.0077229,23.7092504 L5.7812102,6.21203067 C5.36826661,5.28022607 5.05855892,4.34842147 4.74885123,3.62368456 L4.43914354,6.21203067 L1.65177434,24.8481227 L0,24.8481227 L4.02619996,0 L4.95532303,0 L12.5947794,18.3254905 C13.0077229,19.1537612 13.3174306,19.982032 13.5239024,20.7067689 C13.6271383,20.4997012 13.936846,19.6714304 14.5562614,18.3254905 L23.1248408,0 L24.0539639,0 L27.7704561,24.8481227 L26.0154459,24.8481227 L23.3313126,6.10849682 C23.1248408,4.96962453 23.0216049,4.03781993 23.0216049,3.41661687 C23.0216049,3.41661687 22.918369,3.52015071 22.8151331,3.7272184 C22.7118972,3.93428609 22.6086613,4.24488762 22.4021895,4.659023 C22.1957177,5.07315838 21.9892459,5.5908276 21.7827741,6.10849682 L13.6271383,23.5021827 L13.936846,23.7092504 Z" id="Path"></path>
                    </g>
                </g>
            </g>
        </g>
    </g>
</svg>