<svg width="370" height="41" viewBox="0 0 370 41" xmlns="http://www.w3.org/2000/svg"><title>52F47723-B63D-497F-B6F3-0397C5BDB279</title><g fill="#3C3C3C" fill-rule="evenodd"><path d="M196.982 3.475c5.501 0 10.17 1.653 14.003 5.123 3.668 3.47 5.669 8.096 5.669 13.88 0 5.783-1.667 10.244-5.168 13.218-3.501 2.974-7.836 4.461-13.337 4.461-3.668 0-7.67-.165-11.503-.495V3.97c3-.165 6.501-.33 10.502-.33l-.166-.166zm1.167 34.204c4.668 0 8.502-1.322 11.503-3.8 2.834-2.479 4.334-6.28 4.334-11.402 0-5.122-1.667-9.088-4.834-12.227-3.168-2.974-7.169-4.461-12.004-4.461-3.334 0-6.001 0-7.835.165v31.394c2.167.33 5.168.33 8.836.33zM227.657 39.496V3.806h16.837v2.148h-14.337v13.053h12.837v2.148h-12.837v16.028h14.838v2.313zM262.5 5.293c-2.001 0-3.668.496-4.835 1.487-1.334.991-1.834 2.313-1.834 3.966 0 1.982.833 3.8 2.5 5.287C259.5 17.19 261 18.346 263 19.668c1.834 1.322 3.168 2.148 3.835 2.81.667.495 1.5 1.321 2.5 2.313 1.834 1.817 2.668 3.8 2.668 6.278 0 2.975-1 5.288-3.168 6.94-2 1.487-5.001 2.314-8.669 2.314-3.667 0-6.835-.992-9.335-2.81l1.333-1.982c2.5 1.652 5.168 2.478 8.002 2.478 2.834 0 5.002-.66 6.669-1.817 1.5-1.157 2.334-2.81 2.334-4.957 0-1.818-.834-3.47-2.334-5.123-1.167-1.156-2.668-2.313-4.501-3.635-1.834-1.322-3.168-2.148-4.001-2.809a26.261 26.261 0 0 1-2.668-2.313c-1.834-1.818-2.834-3.966-2.834-6.444 0-2.479.834-4.461 2.667-5.783 1.834-1.322 4.168-2.148 7.336-2.148 3.167 0 5.835.66 8.335 1.817l-1 1.983c-2.334-1.157-5.001-1.652-8.002-1.652l.333.165zM282.171 39.496V3.806h2.501v35.69zM313.18 5.458c-4.168 0-7.502 1.487-10.336 4.627-2.835 3.14-4.168 6.94-4.168 11.4 0 4.462 1.5 8.428 4.668 11.567 3.167 3.14 6.835 4.792 11.17 4.792 4.334 0 7.668-.496 10.002-1.487V21.651h2.5v15.863c-2.833 1.817-7.001 2.643-12.336 2.643s-9.836-1.817-13.337-5.287c-3.668-3.635-5.501-7.931-5.501-13.219 0-5.122 1.667-9.583 5.001-13.053 3.334-3.47 7.502-5.288 12.67-5.288 4.168 0 8.336.661 12.337 1.983l-.667 2.148c-3.834-1.157-7.836-1.818-12.003-1.818v-.165zM339.187 39.496V3.476h1.167l23.673 26.933c.833.991 1.667 1.982 2.334 2.809.666.991 1.167 1.487 1.167 1.487 0-.827-.167-2.644-.167-5.123V3.641h2.5v36.02h-1.166L344.52 12.234l-3-3.635c0 .66.166 2.478.166 5.122v25.776h-2.5z"/><g><path d="M160.377 39.822V4.13h2.5v35.69zM133.703 39.822V4.13h2.5v33.377h16.505v2.314h-19.172zM104.361 40.317c-5.168 0-9.502-1.817-13.003-5.287-3.501-3.635-5.168-7.932-5.168-13.054s1.667-9.583 5.168-13.053c3.5-3.635 7.835-5.288 13.003-5.288 5.169 0 9.503 1.818 13.004 5.288 3.5 3.635 5.168 7.93 5.168 13.053 0 5.122-1.667 9.584-5.168 13.054-3.501 3.635-7.835 5.287-13.004 5.287zm0-34.534c-4.5 0-8.168 1.487-11.17 4.627-3 3.14-4.5 6.94-4.5 11.566 0 4.462 1.5 8.427 4.5 11.401 3.002 3.14 6.67 4.627 11.17 4.627 4.502 0 8.17-1.487 11.17-4.627 3-3.139 4.335-6.94 4.335-11.4 0-4.462-1.5-8.428-4.335-11.567-3-3.14-6.668-4.627-11.17-4.627zM57.015 27.429l-5.168 12.393H49.18L64.35 3.8h1.501l15.17 36.022h-2.833L73.02 27.429H57.015zm8.003-19.498c-.5 1.653-1 2.974-1.5 4.131l-5.502 13.219h14.17l-5.501-13.219c-.834-1.983-1.334-3.47-1.667-4.13zM22.506 37.839h-1.5L9.336 9.914c-.667-1.487-1.167-2.974-1.667-4.13l-.5 4.13-4.502 29.742H0L6.502 0h1.5L20.34 29.247a22.298 22.298 0 0 1 1.5 3.8c.167-.33.667-1.652 1.667-3.8L37.343 0h1.5l6.002 39.656h-2.834L37.677 9.75c-.334-1.818-.5-3.305-.5-4.296 0 0-.167.165-.334.495-.166.33-.333.827-.667 1.488-.333.66-.666 1.487-1 2.313l-13.17 27.76.5.33z"/></g></g></svg>