<?xml version="1.0" encoding="UTF-8"?>
<svg width="32px" height="32px" viewBox="0 0 32 32" version="1.1" xmlns="http://www.w3.org/2000/svg" xmlns:xlink="http://www.w3.org/1999/xlink">
    <!-- Generator: Sketch 41.2 (35397) - http://www.bohemiancoding.com/sketch -->
    <title>vk-social-logotype</title>
    <desc>Created with Sketch.</desc>
    <defs></defs>
    <g id="Page-1" stroke="none" stroke-width="1" fill="none" fill-rule="evenodd">
        <g id="Main-page" transform="translate(-152.000000, -3795.000000)" fill="#3C3C3C">
            <g id="footer" transform="translate(-1.000000, 3646.000000)">
                <g id="social" transform="translate(102.000000, 43.000000)">
                    <g id="vk-social-logotype" transform="translate(51.000000, 106.000000)">
                        <g id="Capa_1">
                            <path d="M15.9591837,0 C7.14546939,0 0,7.14514286 0,15.9591837 C0,24.7732245 7.14546939,31.9183673 15.9591837,31.9183673 C24.772898,31.9183673 31.9183673,24.7732245 31.9183673,15.9591837 C31.9183673,7.14514286 24.772898,0 15.9591837,0 Z M24.0545306,17.6852245 C24.7983673,18.4117551 25.5853061,19.0955102 26.2530612,19.8971429 C26.548898,20.2517551 26.8277551,20.618449 27.04,21.0308571 C27.3430204,21.6189388 27.0693878,22.2638367 26.5430204,22.2987755 L23.2734694,22.2981224 C22.4290612,22.368 21.7570612,22.0274286 21.1905306,21.4501224 C20.7382857,20.9900408 20.3186939,20.4986122 19.883102,20.0228571 C19.7051429,19.8275918 19.5177143,19.6437551 19.2943673,19.499102 C18.8486531,19.2091429 18.4613878,19.2979592 18.2060408,19.7635918 C17.9457959,20.2373878 17.8863673,20.762449 17.861551,21.2897959 C17.8259592,22.0607347 17.5934694,22.2622041 16.8199184,22.298449 C15.1670204,22.3758367 13.5986939,22.1250612 12.1410612,21.2917551 C10.8551837,20.5567347 9.85991837,19.5193469 8.99265306,18.3448163 C7.30383673,16.0551837 6.01044898,13.5422041 4.84832653,10.9570612 C4.58677551,10.3748571 4.77812245,10.0633469 5.42040816,10.0512653 C6.4875102,10.0306939 7.55461224,10.0333061 8.62171429,10.0502857 C9.056,10.0571429 9.34334694,10.3056327 9.51020408,10.7154286 C10.0868571,12.1342041 10.7937959,13.4840816 11.6796735,14.736 C11.9157551,15.0693878 12.1567347,15.4017959 12.4999184,15.6372245 C12.8786939,15.8971429 13.1673469,15.8112653 13.3459592,15.3884082 C13.4602449,15.1196735 13.509551,14.8323265 13.5343673,14.5443265 C13.6192653,13.5578776 13.6293878,12.5717551 13.482449,11.5892245 C13.3910204,10.9743673 13.0452245,10.5773061 12.4323265,10.4610612 C12.1201633,10.4019592 12.1658776,10.2863673 12.3177143,10.1080816 C12.5812245,9.79983673 12.8280816,9.60914286 13.3214694,9.60914286 L17.0155102,9.6084898 C17.5977143,9.72277551 17.7283265,9.984 17.8073469,10.570449 L17.8106122,14.6755918 C17.8037551,14.9025306 17.9245714,15.5751837 18.3320816,15.7237551 C18.6586122,15.8315102 18.8741224,15.5696327 19.0693878,15.3629388 C19.9552653,14.4228571 20.586449,13.3133061 21.1516735,12.164898 C21.4011429,11.658449 21.6163265,11.1343673 21.8253061,10.6093061 C21.9807347,10.2210612 22.2223673,10.0300408 22.6605714,10.0365714 L26.2177959,10.0408163 C26.3226122,10.0408163 26.4290612,10.0417959 26.532898,10.0597551 C27.1324082,10.1622857 27.2966531,10.4202449 27.1111837,11.0050612 C26.8192653,11.9239184 26.2520816,12.6893061 25.6976327,13.4566531 C25.1033469,14.2782041 24.469551,15.0710204 23.8811429,15.8961633 C23.3404082,16.650449 23.3831837,17.0302041 24.0545306,17.6852245 Z" id="Shape"></path>
                        </g>
                    </g>
                </g>
            </g>
        </g>
    </g>
</svg>